<?xml version="1.0" standalone="no"?>
<!DOCTYPE svg PUBLIC "-//W3C//DTD SVG 20010904//EN"
 "http://www.w3.org/TR/2001/REC-SVG-20010904/DTD/svg10.dtd">
<svg version="1.0" xmlns="http://www.w3.org/2000/svg"
 width="390.000000pt" height="390.000000pt" viewBox="0 0 390.000000 390.000000"
 preserveAspectRatio="xMidYMid meet">
<metadata>
Created by potrace 1.11, written by Peter Selinger 2001-2013
</metadata>
<g transform="translate(0.000000,390.000000) scale(0.100000,-0.100000)"
fill="#000000" stroke="none">
<path d="M0 2675 l0 -250 241 -241 240 -240 -241 -237 -240 -236 2 -248 3
-248 240 237 240 236 240 -233 c132 -129 244 -234 250 -235 5 0 117 107 247
237 l238 238 238 -238 c130 -130 240 -237 245 -237 4 0 7 104 7 231 l0 231
235 -229 c130 -125 241 -230 247 -232 6 -2 117 103 247 233 l236 236 240 -240
240 -240 242 0 c134 0 243 3 243 7 0 5 -107 115 -237 245 l-238 238 245 245
245 245 -238 238 c-130 130 -237 242 -237 247 0 5 107 117 237 247 l238 238
-250 0 -250 0 -237 -237 -238 -238 -57 55 c-32 30 -142 138 -246 240 l-187
185 -243 -243 -242 -242 -242 242 -242 242 -238 -234 -238 -235 -3 233 c-1
127 -6 232 -10 232 -4 0 -115 -108 -247 -240 l-240 -240 -242 242 -243 243 0
-250z m1218 -490 l243 239 240 -240 239 -239 0 -235 0 -235 -240 240 -240 240
-242 -242 -241 -241 -244 236 -243 236 237 238 238 238 5 -237 5 -238 243 240z
m1457 -3 l238 -234 -239 -238 -239 -239 -243 236 -243 236 238 239 c131 131
241 237 244 236 4 -2 114 -108 244 -236z m482 -469 l-237 -238 0 475 0 475
237 -238 238 -237 -238 -237z"/>
</g>
</svg>
